<?xml version="1.0" encoding="utf-8"?>
<!-- Generator: Adobe Illustrator 18.1.1, SVG Export Plug-In . SVG Version: 6.00 Build 0)  -->
<svg version="1.1" id="NASA_insignia_color" xmlns="http://www.w3.org/2000/svg" xmlns:xlink="http://www.w3.org/1999/xlink"
	 x="0px" y="0px" viewBox="0 0 323 279.9" enable-background="new 0 0 323 279.9" xml:space="preserve">
<path fill="#0066B3" d="M278.4,136.7c0,69.1-56.9,125.9-126.1,125.9S26.3,205.8,26.3,136.7c0-69.1,56.9-125.9,126.1-125.9
	S278.4,67.6,278.4,136.7z"/>
<path fill="#FFFFFF" d="M180.8,203c53.7,22.1,44.6-33.8,15.8-76.7C180.3,102,159.1,81.7,145.7,72c-44.6-32.5-71.7-12.6-40.4,51.1
	c10.1,20.7,23.1,34.6,33.3,47.7c7.8,10,22.9,15.1,17.6,19.8c-6,5.4-20.5-18.3-20.5-18.3c-10.7-12.9-21-26.8-31.5-45.7
	c-24.1-43.3-20.6-87.5,23-68.2c37,16.3,72.4,62.2,86.6,94.7c6.6,15.1,24.3,74.5-32.5,50.5"/>
<path fill="#EF3E42" d="M13.3,174c23.7-15.8,46.2-26,84.4-38.6c53.7-17.7,94.2-29.7,143.8-54.6c24.2-12.1,59.9-35.7,74.2-58.4
	c-4.1,8.4-16.6,25.3-22.4,32.5c-67.3,84.3-210.7,79.5-279,120"/>
<path fill="#FFFFFF" d="M47.7,112.4c21.6,0.2,19.6,0,19.8,0.2c0.4,0,17.3,29.2,17.3,29.4c0,0.1-0.1-10.4-0.1-23.5
	c0-1.5-4.2-5.9-4-5.9c6.2,0,14.3,0.1,14.3,0.1c-3,3.5-3.6,3.2-3.7,5.4c-0.1,7-0.2,20,0,34.6c0,2.2,1.6,3,4.3,6.8H75.7
	c-6.4-10.7-18.3-30.9-18.2-30.8c0.1,0.1-0.3,12.6,0.1,22.7c0.1,3.3,1.6,4.4,4.4,7.5c0,0,3.2-0.1-15.5,0.1c5.7-3,4.9-6.8,4.9-6.9
	c-0.2-14,0-25.9,0-33.6c0-1.3-0.1-1.1-4-5.9"/>
<g>
	<path fill="#FFFFFF" d="M115.5,134c1.8-6.3,3.4-12,4.1-15.7c0.1-0.6-1.4-2.9-3.8-5.2l-0.2-0.4c11.6,0,23.7,0.1,23.7,0.1
		c3.2,7.7,10.4,29.3,15.8,42.5c1.4,3.5,3.9,4.2,3.9,4.2c-9.9-0.1-28.2,0-28.1-0.1c4.9-4.4,4.3-4.4,2.1-10.9h-15.4
		c-3.2,7.3,1,10.8,1.5,10.7c-3.5,0.2-15.4,0-15.4,0c6.4-4.5,6.1-5.9,6.1-5.9C111.6,147.1,113.7,140.2,115.5,134l6.3,0
		c-1.4,4.4-2.7,8.7-2.7,8.7h12.3l-6.8-17.4c0,0-1.4,4.4-2.7,8.7L115.5,134z"/>
</g>
<g>
	<path fill="#FFFFFF" d="M221.4,134.6c1.8-6.3,3.4-12,4.1-15.7c0.1-0.6-1.4-2.9-3.8-5.2l-0.2-0.4c11.6,0,23.7,0.1,23.7,0.1
		c3.2,7.7,10.4,29.3,15.8,42.6c1.4,3.5,3.9,4.2,3.9,4.2c-9.9-0.1-28.2,0-28.1-0.1c4.9-4.4,4.3-4.4,2.1-10.9h-15.4
		c-3.2,7.3,1,10.8,1.5,10.7c-3.5,0.2-15.4,0-15.4,0c6.4-4.5,6.1-5.9,6.1-5.9C217.5,147.8,219.6,140.9,221.4,134.6l6.3,0
		c-1.4,4.4-2.7,8.7-2.7,8.7h12.3l-6.8-17.4c0,0-1.4,4.4-2.7,8.7L221.4,134.6z"/>
</g>
<path fill="#FFFFFF" d="M201.5,124.3c-0.3-9,0-11.9,0-11.9c-3.9,3.2-1.9,2.8-11.8,1.1c-28.3-4.7-30.5,21.7-15,27.7
	c12.9,5,17.5,5.9,15.5,10.6c-0.6,1.5-12.4,7.1-24.5-4.2l0.3,15.7c1.5-1.6,5.7-4.4,5.7-4.4c0.1,0,13.1,5.7,24.9-0.3
	c18.1-9.2,9.1-24.1-10.2-30.1c-16.1-4.9-0.9-16.4,15-4.2"/>
<path fill="#EF3E42" d="M316,22.9c-19.2,57-96.2,101-161,143c-39.1,25.4-77.9,54.5-104.6,79.4c-7,6.5,1.4-2.4-1.3,0.3
	c37.3-42.9,80.2-68.5,103.9-84.6c40.1-27.2,62.9-34.1,132-97.8"/>
<path fill="#FFFFFF" d="M180.8,203c53.7,22.1,44.6-33.8,15.8-76.7C180.3,102,160.3,82.7,145.7,72c-17-12.5-18.6-13.6-18.6-13.6
	c37.9,18,72.4,62.2,86.6,94.7c6.6,15.1,24.3,74.5-32.5,50.5"/>
<path fill="#FFFFFF" d="M154.1,22.2c0,0.6-0.5,1-1,1c-0.6,0-1-0.5-1-1c0-0.6,0.5-1,1-1C153.7,21.2,154.1,21.6,154.1,22.2z"/>
<path fill="#FFFFFF" d="M161.2,37.7c0,0.7-0.6,1.3-1.3,1.3s-1.3-0.6-1.3-1.3c0-0.7,0.6-1.3,1.3-1.3S161.2,37,161.2,37.7z"/>
<path fill="#FFFFFF" d="M179.7,63.1c0,0.7-0.6,1.3-1.3,1.3c-0.7,0-1.3-0.6-1.3-1.3c0-0.7,0.6-1.3,1.3-1.3
	C179.1,61.9,179.7,62.5,179.7,63.1z"/>
<path fill="#FFFFFF" d="M150,46.5c0,0.6-0.5,1-1,1c-0.6,0-1-0.5-1-1c0-0.6,0.5-1,1-1C149.5,45.5,150,45.9,150,46.5z"/>
<path fill="#FFFFFF" d="M161.1,52.3c0,0.6-0.5,1-1,1c-0.6,0-1-0.5-1-1c0-0.6,0.5-1,1-1C160.6,51.3,161.1,51.8,161.1,52.3z"/>
<path fill="#FFFFFF" d="M146.7,36c0,0.7-0.6,1.3-1.3,1.3c-0.7,0-1.3-0.6-1.3-1.3c0-0.7,0.6-1.3,1.3-1.3
	C146.1,34.7,146.7,35.3,146.7,36z"/>
<path fill="#FFFFFF" d="M129.9,46.2c0,0.6-0.5,1-1,1c-0.6,0-1-0.5-1-1s0.5-1,1-1C129.5,45.2,129.9,45.6,129.9,46.2z"/>
<path fill="#FFFFFF" d="M132.9,48.2c0,0.6-0.5,1-1,1c-0.6,0-1-0.5-1-1c0-0.6,0.5-1,1-1C132.5,47.2,132.9,47.7,132.9,48.2z"/>
<path fill="#FFFFFF" d="M136,50.3c0,0.6-0.5,1-1,1c-0.6,0-1-0.5-1-1c0-0.6,0.5-1,1-1C135.5,49.3,136,49.7,136,50.3z"/>
<path fill="#FFFFFF" d="M131.4,54.2c0,0.6-0.5,1-1,1c-0.6,0-1-0.5-1-1c0-0.6,0.5-1,1-1C130.9,53.2,131.4,53.7,131.4,54.2z"/>
<path fill="#FFFFFF" d="M107.5,71c0,0.6-0.5,1-1,1c-0.6,0-1-0.5-1-1c0-0.6,0.5-1,1-1C107,69.9,107.5,70.4,107.5,71z"/>
<path fill="#FFFFFF" d="M111.9,76.3c0,0.6-0.5,1-1,1c-0.6,0-1-0.5-1-1c0-0.6,0.5-1,1-1C111.5,75.3,111.9,75.8,111.9,76.3z"/>
<path fill="#FFFFFF" d="M108.5,163c0,0.6-0.5,1-1,1c-0.6,0-1-0.5-1-1s0.5-1,1-1C108,161.9,108.5,162.4,108.5,163z"/>
<path fill="#FFFFFF" d="M109.1,186.9c0,0.7-0.6,1.3-1.3,1.3c-0.7,0-1.3-0.6-1.3-1.3c0-0.7,0.6-1.3,1.3-1.3
	C108.5,185.6,109.1,186.2,109.1,186.9z"/>
<path fill="#FFFFFF" d="M95.5,199.1c0,0.6-0.5,1-1,1c-0.6,0-1-0.5-1-1s0.5-1,1-1C95,198.1,95.5,198.5,95.5,199.1z"/>
<path fill="#FFFFFF" d="M79.2,204.1c0,0.7-0.6,1.3-1.3,1.3c-0.7,0-1.3-0.6-1.3-1.3c0-0.7,0.6-1.3,1.3-1.3
	C78.7,202.8,79.2,203.4,79.2,204.1z"/>
<path fill="#FFFFFF" d="M75.9,193c0,0.7-0.6,1.3-1.3,1.3c-0.7,0-1.3-0.6-1.3-1.3c0-0.7,0.6-1.3,1.3-1.3
	C75.3,191.8,75.9,192.3,75.9,193z"/>
<path fill="#FFFFFF" d="M74,200.1c0,0.6-0.5,1-1,1c-0.6,0-1-0.5-1-1c0-0.6,0.5-1,1-1C73.6,199,74,199.5,74,200.1z"/>
<path fill="#FFFFFF" d="M61.9,194.2c0,0.6-0.5,1-1,1c-0.6,0-1-0.5-1-1s0.5-1,1-1C61.4,193.2,61.9,193.7,61.9,194.2z"/>
<path fill="#FFFFFF" d="M104.4,213.9c0,0.6-0.5,1-1,1c-0.6,0-1-0.5-1-1c0-0.6,0.5-1,1-1C103.9,212.9,104.4,213.4,104.4,213.9z"/>
<path fill="#FFFFFF" d="M117.2,204.6c0,0.7-0.6,1.3-1.3,1.3c-0.7,0-1.3-0.6-1.3-1.3c0-0.7,0.6-1.3,1.3-1.3
	C116.6,203.3,117.2,203.9,117.2,204.6z"/>
<path fill="#FFFFFF" d="M118.6,216.6c0,0.6-0.5,1-1,1c-0.6,0-1-0.5-1-1s0.5-1,1-1C118.1,215.6,118.6,216.1,118.6,216.6z"/>
<path fill="#FFFFFF" d="M171.2,205.1c0,0.6-0.5,1-1,1c-0.6,0-1-0.5-1-1c0-0.6,0.5-1,1-1C170.7,204.1,171.2,204.5,171.2,205.1z"/>
<path fill="#FFFFFF" d="M146.7,213.8c0,0.6-0.5,1-1,1c-0.6,0-1-0.5-1-1s0.5-1,1-1C146.2,212.8,146.7,213.2,146.7,213.8z"/>
<path fill="#FFFFFF" d="M212.6,226.3c0,0.6-0.5,1-1,1c-0.6,0-1-0.5-1-1s0.5-1,1-1C212.1,225.2,212.6,225.7,212.6,226.3z"/>
<path fill="#FFFFFF" d="M217.9,177.7c0,0.7-0.6,1.3-1.3,1.3c-0.7,0-1.3-0.6-1.3-1.3c0-0.7,0.6-1.3,1.3-1.3
	C217.4,176.5,217.9,177,217.9,177.7z"/>
<path fill="#FFFFFF" d="M207.8,184.6c0,0.6-0.5,1-1,1c-0.6,0-1-0.5-1-1c0-0.6,0.5-1,1-1C207.4,183.6,207.8,184,207.8,184.6z"/>
<path fill="#FFFFFF" d="M217.8,186.6c0,0.7-0.6,1.3-1.3,1.3c-0.7,0-1.3-0.6-1.3-1.3s0.6-1.3,1.3-1.3
	C217.2,185.3,217.8,185.9,217.8,186.6z"/>
<path fill="#FFFFFF" d="M207.8,198.8c0,0.6-0.5,1-1,1c-0.6,0-1-0.5-1-1s0.5-1,1-1C207.4,197.8,207.8,198.2,207.8,198.8z"/>
<path fill="#FFFFFF" d="M233.6,170.9c0,0.6-0.5,1-1,1c-0.6,0-1-0.5-1-1c0-0.6,0.5-1,1-1C233.1,169.8,233.6,170.3,233.6,170.9z"/>
<path fill="#FFFFFF" d="M236.1,177.1c0,0.7-0.6,1.3-1.3,1.3s-1.3-0.6-1.3-1.3c0-0.7,0.6-1.3,1.3-1.3S236.1,176.4,236.1,177.1z"/>
<path fill="#FFFFFF" d="M253.8,184.5c0,0.7-0.6,1.3-1.3,1.3c-0.7,0-1.3-0.6-1.3-1.3c0-0.7,0.6-1.3,1.3-1.3
	C253.2,183.2,253.8,183.8,253.8,184.5z"/>
<path fill="#FFFFFF" d="M235.8,197.7c0,0.6-0.5,1-1,1c-0.6,0-1-0.5-1-1s0.5-1,1-1C235.3,196.7,235.8,197.1,235.8,197.7z"/>
<path fill="#FFFFFF" d="M247.2,187c0,0.6-0.5,1-1,1c-0.6,0-1-0.5-1-1c0-0.6,0.5-1,1-1C246.7,185.9,247.2,186.4,247.2,187z"/>
<path fill="#FFFFFF" d="M245.1,203.5c0,0.6-0.5,1-1,1c-0.6,0-1-0.5-1-1c0-0.6,0.5-1,1-1C244.7,202.5,245.1,203,245.1,203.5z"/>
<g>
	<path fill="#FFFFFF" d="M249.9,176c0,0.9-0.7,1.6-1.6,1.6c-0.9,0-1.6-0.7-1.6-1.6s0.7-1.6,1.6-1.6
		C249.2,174.4,249.9,175.1,249.9,176z"/>
</g>
<g>
	<polygon fill="#FFFFFF" points="248.3,171.2 247.8,175.5 243.5,176 247.9,176.5 248.4,181 248.8,176.5 253.1,175.9 248.8,175.5 	
		"/>
</g>
<g>
	<path fill="#FFFFFF" d="M238.8,203.5c0,0.9-0.7,1.6-1.6,1.6c-0.9,0-1.6-0.7-1.6-1.6c0-0.9,0.7-1.6,1.6-1.6
		C238.1,201.9,238.8,202.6,238.8,203.5z"/>
</g>
<g>
	<polygon fill="#FFFFFF" points="237.3,198.6 236.8,203 232.5,203.5 236.8,203.9 237.3,208.4 237.8,203.9 242,203.4 237.7,203 	"/>
</g>
<g>
	<path fill="#FFFFFF" d="M121,73.1c0,0.9-0.7,1.6-1.6,1.6c-0.9,0-1.6-0.7-1.6-1.6c0-0.9,0.7-1.6,1.6-1.6
		C120.3,71.5,121,72.2,121,73.1z"/>
</g>
<g>
	<polygon fill="#FFFFFF" points="119.4,68.3 118.9,72.6 114.6,73.1 119,73.6 119.4,78.1 119.9,73.6 124.2,73 119.9,72.6 	"/>
</g>
<g>
	<path fill="#FFFFFF" d="M179.8,34.9c0,0.9-0.7,1.6-1.6,1.6s-1.6-0.7-1.6-1.6s0.7-1.6,1.6-1.6S179.8,34,179.8,34.9z"/>
</g>
<g>
	<polygon fill="#FFFFFF" points="178.2,30.1 177.7,34.4 173.4,34.9 177.7,35.4 178.2,39.9 178.7,35.4 182.9,34.8 178.6,34.4 	"/>
</g>
<g>
	<path fill="#FFFFFF" d="M108.3,228.7c0,0.9-0.7,1.6-1.6,1.6s-1.6-0.7-1.6-1.6c0-0.9,0.7-1.6,1.6-1.6S108.3,227.8,108.3,228.7z"/>
</g>
<g>
	<polygon fill="#FFFFFF" points="106.8,223.9 106.3,228.2 102,228.7 106.3,229.2 106.8,233.7 107.3,229.2 111.5,228.6 107.2,228.2 	
		"/>
</g>
<path fill="#EF3E42" d="M29.4,164.1c-6.9,3.4-13.1,6.7-18.3,10l3.2,1.2c4.6-2.8,10.1-5.8,15.9-8.4"/>
<path fill="#EF3E42" d="M65.8,227.9c-6.3,5.5-12.8,11.4-19.4,17.5l-0.3,4.3c6-6.2,13.3-12.8,21.8-19.9"/>
</svg>
